@startuml gateway

' !include relation.puml

namespace gateway {
    ' interface DataPlaneRunner  {
    '     + StartIngress(scionNetwork *snet.SCIONNetwork, dataAddr *net.UDPAddr, deviceManager control.DeviceManager, metrics *Metrics) error
    '     + NewDataPlaneSessionFactory(scionNetwork *snet.SCIONNetwork, dataClientIP net.IP, metrics *Metrics, reportCollector <font color=blue>interface</font>{}) control.DataplaneSessionFactory
    '     + NewRoutingTableFactory() control.RoutingTableFactory

    ' }
    class DataplaneSessionFactory << (S,Aquamarine) >> {
        + PacketConnFactory PacketConnFactory
        + PathStatsPublisher dataplane.PathStatsPublisher
        + Metrics dataplane.SessionMetrics

        + New(id uint8, policyID int, remoteIA addr.IA, remoteAddr net.Addr) control.DataplaneSession

    }
    class Gateway << (S,Aquamarine) >> {
        + ID string
        + TrafficPolicyFile string
        + RoutingPolicyFile string
        + ControlClientIP net.IP
        + ControlServerAddr *net.UDPAddr
        + ServiceDiscoveryClientIP net.IP
        + PathMonitorIP net.IP
        + ProbeServerAddr *net.UDPAddr
        + ProbeClientIP net.IP
        + DataServerAddr *net.UDPAddr
        + DataClientIP net.IP
        + DataAddr *net.UDPAddr
        + Dispatcher reliable.Dispatcher
        + Daemon daemon.Connector
        + RouteSourceIPv4 net.IP
        + RouteSourceIPv6 net.IP
        + TunnelName string
        + RoutingTableReader control.RoutingTableReader
        + RoutingTableSwapper control.RoutingTableSwapper
        + ConfigReloadTrigger <font color=blue>chan</font> <font color=blue>struct</font>{}
        + HTTPEndpoints service.StatusPages
        + HTTPServeMux *http.ServeMux
        + Metrics *Metrics

        - diagnosticsSGRP(routePublisherFactory control.PublisherFactory, pub *control.ConfigPublisher) http.HandlerFunc

        + Run(ctx context.Context) error

    }
}


namespace control {
    interface DataplaneSession  {
        + SetPaths( []snet.Path) error
        + Close() 

    }
    interface DataplaneSessionFactory  {
        + New(sessID uint8, policyID int, remoteIA addr.IA, remoteAddr net.Addr) DataplaneSession

    }
    class Engine << (S,Aquamarine) >> {
        - stateMtx sync.RWMutex
        - eventNotifications <font color=blue>chan</font> SessionEvent
        - dataplaneSessions <font color=blue>map</font>[uint8]DataplaneSession
        - sessionMonitors []*SessionMonitor
        - sessions []*Session
        - router *Router
        - pathMonitorRegistrations []PathMonitorRegistration
        - deviceHandles []DeviceHandle
        - probeConns []net.PacketConn
        - workerBase worker.Base

        + SessionConfigs []*SessionConfig
        + RoutingTable RoutingTable
        + RoutingTableIndices <font color=blue>map</font>[int][]uint8
        + PathMonitor PathMonitor
        + ProbeConnFactory PacketConnFactory
        + DeviceManager DeviceManager
        + DataplaneSessionFactory DataplaneSessionFactory
        + Metrics EngineMetrics

        - setup(ctx context.Context) error
        - validate() error
        - initWorkers(ctx context.Context) error
        - close(ctx context.Context) error

        + Run(ctx context.Context) error
        + DiagnosticsWrite(w io.Writer) 
        + Status(w io.Writer) 
        + Close(ctx context.Context) error

    }
    note right of Engine::DataplaneSessionFactory
        Engine use the method to create a ""**DataplaneSession**""
    end note
    
    class EngineController << (S,Aquamarine) >> {
        - stateMtx sync.RWMutex
        - engine Worker
        - workerBase worker.Base

        + ConfigurationUpdates <font color=blue>chan</font> []*SessionConfig
        + RoutingTableSwapper RoutingTableSwapper
        + RoutingTableFactory RoutingTableFactory
        + EngineFactory EngineFactory
        + RoutePublisherFactory PublisherFactory
        + RouteSourceIPv4 net.IP
        + RouteSourceIPv6 net.IP
        + SwapDelay time.Duration

        - validate(ctx context.Context) error
        - run(ctx context.Context) error

        + Run(ctx context.Context) error
        + DiagnosticsWrite(w io.Writer) 
        + Status(w io.Writer) 

    }
    interface EngineFactory  {
        + New(table RoutingTable, sessions []*SessionConfig, routingTableIndices <font color=blue>map</font>[int][]uint8) Worker

    }

    class DefaultEngineFactory << (S,Aquamarine) >> {
        + PathMonitor PathMonitor
        + ProbeConnFactory PacketConnFactory
        + DeviceManager DeviceManager
        + DataplaneSessionFactory DataplaneSessionFactory
        + Metrics EngineMetrics

        + New(table RoutingTable, sessions []*SessionConfig, routingTableIndices <font color=blue>map</font>[int][]uint8) Worker

    }
    interface Worker  {
        + Run( context.Context) error
        + Close( context.Context) error

    }
    class Session << (S,Aquamarine) >> {
        - pathResultMtx sync.RWMutex
        - pathResult pathhealth.Selection
        - runCalledMutex sync.Mutex
        - runCalled bool

        + ID uint8
        + RemoteIA addr.IA
        + Events <font color=blue>chan</font> SessionEvent
        + SessionMonitorEvents <font color=blue>chan</font> SessionEvent
        + PathMonitorRegistration PathMonitorRegistration
        + PathMonitorPollInterval time.Duration
        + DataplaneSession DataplaneSession

        - runCalledCheck() error
        - validate() error
        - sessionPaths() sessionPaths

        + Run(ctx context.Context) error

    }

    Engine *-- DataplaneSessionFactory
    EngineController *-- EngineFactory
    EngineController "1" *-- Engine
    Engine "1" *-- "*" DataplaneSession: create via ""**DataplaneSessionFactory.New()**"" 
    Engine ..|> Worker
    EngineFactory <|.. DefaultEngineFactory


}


namespace dataplane {
    ' class AtomicRoutingTable << (S,Aquamarine) >> {
    '     - mtx sync.RWMutex
    '     - table control.RoutingTable

    '     - getPointer() control.RoutingTable

    '     + RouteIPv4(packet layers.IPv4) control.PktWriter
    '     + RouteIPv6(packet layers.IPv6) control.PktWriter
    '     + SetRoutingTable(table control.RoutingTable) io.Closer

    ' }
    ' interface DiagnosticsWriter  {
    '     + DiagnosticsWrite( io.Writer) 

    ' }
    ' class IPForwarder << (S,Aquamarine) >> {
    '     + Reader io.Reader
    '     + RoutingTable control.RoutingTableReader
    '     + Metrics IPForwarderMetrics

    '     - validate() error
    '     - initMetrics() 

    '     + Run(ctx context.Context) error

    ' }
    ' class IPForwarderMetrics << (S,Aquamarine) >> {
    '     + IPPktBytesLocalRecv metrics.Counter
    '     + IPPktsLocalRecv metrics.Counter
    '     + IPPktsNoRoute metrics.Counter
    '     + IPPktsInvalid metrics.Counter
    '     + IPPktsFragmented metrics.Counter
    '     + ReceiveLocalErrors metrics.Counter

    ' }
    class IngressMetrics << (S,Aquamarine) >> {
        + IPPktBytesRecv metrics.Counter
        + IPPktsRecv metrics.Counter
        + IPPktBytesLocalSent metrics.Counter
        + IPPktsLocalSent metrics.Counter
        + FrameBytesRecv metrics.Counter
        + FramesRecv metrics.Counter
        + FramesDiscarded metrics.Counter
        + SendLocalError metrics.Counter
        + ReceiveExternalError metrics.Counter

    }
    class IngressServer << (S,Aquamarine) >> {
        - workers <font color=blue>map</font>[string]*worker

        + Conn ReadConn
        + DeviceManager control.DeviceManager
        + Metrics IngressMetrics

        - read(ctx context.Context) error
        - dispatch(ctx context.Context, frame *frameBuf, src *snet.UDPAddr) 
        - cleanup() 

        + Run(ctx context.Context) error

    }
    
    note right of IngressServer::Conn
        IngressServer use the method **ReadFrom** 
        to read data from connection device to **b**
    end note

    ' interface PathStatsPublisher  {
    '     + PublishEgressStats(fingerprint string, frames int64, bytes int64) 

    ' }
    interface ReadConn  {
        + ReadFrom(b []byte) (int, net.Addr, error)

    }
    ' class RoutingTable << (S,Aquamarine) >> {
    '     - indexToSubEntry <font color=blue>map</font>[int]*subEntry
    '     - indexToEntries <font color=blue>map</font>[int][]*entry
    '     - table []*entry

    '     - route(dst net.IP, pkt gopacket.Layer) control.PktWriter

    '     + DiagnosticsWrite(w io.Writer) 
    '     + RouteIPv4(pkt layers.IPv4) control.PktWriter
    '     + RouteIPv6(pkt layers.IPv6) control.PktWriter
    '     + SetSession(index int, session control.PktWriter) error
    '     + ClearSession(index int) error
    '     + Close() error

    ' }
    class Session << (S,Aquamarine) >> {
        - mutex sync.Mutex
        - senders []*sender
        - encoder *encoder
        - currentMtuSum int
        - seq uint64

        + SessionID uint8
        + GatewayAddr net.UDPAddr
        + DataPlaneConn net.PacketConn
        + PathStatsPublisher PathStatsPublisher
        + Metrics SessionMetrics

        - run() 
        - splitAndSend_aont_rs(frame []byte) 
        - splitAndSend(frame []byte) 
        - encodeFrame(pkt []byte, index uint16, streamID uint32, pathId uint8) []byte

        + Close() 
        + Write(packet gopacket.Packet) 
        + String() string
        + SetPaths(paths []snet.Path) error

    }
    note left of Session::run
        ""**run**"" read frames from buffer in ""**encoder**"" constantly and
        apply ""**splitAndSend_aont_rs**"" on frames then send frame via 
        ""**sender**"".
    end note
    class SessionMetrics << (S,Aquamarine) >> {
        + IPPktsSent metrics.Counter
        + IPPktBytesSent metrics.Counter
        + FramesSent metrics.Counter
        + FrameBytesSent metrics.Counter
        + SendExternalErrors metrics.Counter

    }
    class encoder << (S,Aquamarine) >> {
        - sessionID uint8
        - streamID uint32
        - ring *pktRing
        - seq uint64
        - pkt []byte
        - frame []byte
        - frameMtx sync.Mutex

        - copyToFrame() int

        + Close() 
        + Write(pkt []byte) 
        + Read() []byte
        + Lock() 
        + Unlock() 
        + ChangeFrameSize(mtu int) 

    }
    ' class entry << (S,Aquamarine) >> {
    '     + Prefix *net.IPNet
    '     + Table []*subEntry

    '     - route(pkt gopacket.Layer) control.PktWriter

    '     + String() string

    ' }
    class frameBuf << (S,Aquamarine) >> {
        - sessId uint8
        - seqNr uint64
        - index int
        - frameLen int
        - frag0Start int
        - frag0Processed bool
        - fragNProcessed bool
        - completePktsProcessed bool
        - pktLen int
        - raw []byte
        - snd ingressSender

        + Reset() 
        + Release() 
        + ProcessCompletePkts(ctx context.Context) 
        + Processed() bool
        + SetProcessed() 
        + String() string

    }
    class frameBufGroup << (S,Aquamarine) >> {
        - groupSeqNr uint64
        - numPaths uint8
        - frameCnt uint8
        - frames *list.List
        - combined *frameBuf
        - isCombined bool

        + Release() 
        + TryAndCombine() bool

    }
    interface ingressSender  {
        - send( []byte) error

    }
    class pktRing << (S,Aquamarine) >> {
        - ring *ringbuf.Ring
        - storage []ringbuf.Entry
        - entries []ringbuf.Entry

        + Write(pkt []byte, block bool) int
        + Read(block bool) ([]byte, int)
        + Close() 

    }
    class reassemblyList << (S,Aquamarine) >> {
        - epoch int
        - capacity int
        - numPaths uint8
        - snd ingressSender
        - markedForDeletion bool
        - entries *list.List
        - buf *bytes.Buffer
        - tooOld metrics.Counter
        - duplicate metrics.Counter
        - evicted metrics.Counter
        - invalid metrics.Counter

        - insertNewGroup(frame *frameBuf) 
        - tryReassemble(ctx context.Context) 
        - collectAndWrite(ctx context.Context) 
        - removeEntry(e *list.Element) 
        - removeProcessed() 
        - removeAll() 
        - removeBefore(ele *list.Element) 
        - printInfo() 

        + Insert(ctx context.Context, frame *frameBuf) 

    }
    class sender << (S,Aquamarine) >> {
        - ring *pktRing
        - conn net.PacketConn
        - address net.Addr
        - pathStatsPublisher PathStatsPublisher
        - path snet.Path
        - pathFingerprint snet.PathFingerprint
        - metrics SessionMetrics

        + Mtu int

        - run() 

        + Close() 
        + Write(pkt []byte) 

    }
    ' class subEntry << (S,Aquamarine) >> {
    '     + Class pktcls.Cond
    '     + Session control.PktWriter

    '     + String() string

    ' }

    class worker << (S,Aquamarine) >> {
        - numPaths uint8
        - rlists <font color=blue>map</font>[int]*reassemblyList
        - markedForCleanup bool
        - tunIO io.WriteCloser

        + Remote *snet.UDPAddr
        + SessID uint8
        + Ring *ringbuf.Ring
        + Metrics IngressMetrics

        - processFrame(ctx context.Context, frame *frameBuf) 
        - getRlist(epoch int) *reassemblyList
        - cleanup() 
        - send(packet []byte) error
        - adjustCtx(ctx context.Context) (context.Context, log.Logger)

        + Stop() 
        + Run(ctx context.Context) 

    }
    note top of worker
        worker reads frames from the Ring, and it process frames
        with ""**processFrame**""
    end note


    IngressServer *-- ReadConn

    ingressSender <|-- worker

    Session "1" *-- "many" sender
    Session *-- encoder : ""**Session.Write()**""
    Session *-- SessionMetrics
    frameBufGroup "1" *-- "many" frameBuf

    IngressServer "1" *-- "many" worker
    IngressServer  *--  IngressMetrics


    worker *-- reassemblyList
    ' Not sure the right relation
    reassemblyList *-- frameBufGroup


    sender "1" *-- "1" pktRing

    note bottom of encoder: Reads packets from a ring buffer and\ntransforms them into SIG frames
}
gateway.Gateway *-- control.EngineController
gateway.Gateway *-- dataplane.IngressServer
control.DataplaneSession <|.. dataplane.Session
control.Session *-- dataplane.Session

'gateway.DataplaneSessionFactory struct contain a methon to create control.DataplaneSession
control.DefaultEngineFactory *-- gateway.DataplaneSessionFactory


gateway.DataplaneSessionFactory ..|> control.DataplaneSessionFactory
@enduml
